name C:\Users\u0101727\Documents\MyRepositories\upper-imu-dc\OpenSim\subject0\MA\ResultsMA\grid_4nodes_9dim\angles_2.mot
datacolumns 10
datarows 47
range 200.01000000 200.47000000
endheader 
time	clav_prot	clav_elev	scapula_abduction	scapula_elevation	scapula_upward_rot	scapula_winging	plane_elv	shoulder_elv	axial_rot	
        200.01000000	        -50.00000000	        -10.00000000	         -3.33333333	        -10.00000000	         60.00000000	         10.00000000	        -90.00000000	         26.66666667	        -90.00000000	
        200.02000000	        -38.33333333	        -10.00000000	         -3.33333333	        -10.00000000	         60.00000000	         10.00000000	        -90.00000000	         26.66666667	        -90.00000000	
        200.03000000	        -26.66666667	        -10.00000000	         -3.33333333	        -10.00000000	         60.00000000	         10.00000000	        -90.00000000	         26.66666667	        -90.00000000	
        200.04000000	        -15.00000000	        -10.00000000	         -3.33333333	        -10.00000000	         60.00000000	         10.00000000	        -90.00000000	         26.66666667	        -90.00000000	
        200.05000000	        -50.00000000	          0.00000000	         -3.33333333	        -10.00000000	         60.00000000	         10.00000000	        -90.00000000	         26.66666667	        -90.00000000	
        200.06000000	        -38.33333333	          0.00000000	         -3.33333333	        -10.00000000	         60.00000000	         10.00000000	        -90.00000000	         26.66666667	        -90.00000000	
        200.07000000	        -26.66666667	          0.00000000	         -3.33333333	        -10.00000000	         60.00000000	         10.00000000	        -90.00000000	         26.66666667	        -90.00000000	
        200.08000000	        -15.00000000	          0.00000000	         -3.33333333	        -10.00000000	         60.00000000	         10.00000000	        -90.00000000	         26.66666667	        -90.00000000	
        200.09000000	        -50.00000000	         10.00000000	         -3.33333333	        -10.00000000	         60.00000000	         10.00000000	        -90.00000000	         26.66666667	        -90.00000000	
        200.10000000	        -38.33333333	         10.00000000	         -3.33333333	        -10.00000000	         60.00000000	         10.00000000	        -90.00000000	         26.66666667	        -90.00000000	
        200.11000000	        -26.66666667	         10.00000000	         -3.33333333	        -10.00000000	         60.00000000	         10.00000000	        -90.00000000	         26.66666667	        -90.00000000	
        200.12000000	        -15.00000000	         10.00000000	         -3.33333333	        -10.00000000	         60.00000000	         10.00000000	        -90.00000000	         26.66666667	        -90.00000000	
        200.13000000	        -50.00000000	         20.00000000	         -3.33333333	        -10.00000000	         60.00000000	         10.00000000	        -90.00000000	         26.66666667	        -90.00000000	
        200.14000000	        -38.33333333	         20.00000000	         -3.33333333	        -10.00000000	         60.00000000	         10.00000000	        -90.00000000	         26.66666667	        -90.00000000	
        200.15000000	        -26.66666667	         20.00000000	         -3.33333333	        -10.00000000	         60.00000000	         10.00000000	        -90.00000000	         26.66666667	        -90.00000000	
        200.16000000	        -15.00000000	         20.00000000	         -3.33333333	        -10.00000000	         60.00000000	         10.00000000	        -90.00000000	         26.66666667	        -90.00000000	
        200.17000000	        -50.00000000	        -10.00000000	         15.00000000	        -10.00000000	         60.00000000	         10.00000000	        -90.00000000	         26.66666667	        -90.00000000	
        200.18000000	        -38.33333333	        -10.00000000	         15.00000000	        -10.00000000	         60.00000000	         10.00000000	        -90.00000000	         26.66666667	        -90.00000000	
        200.19000000	        -26.66666667	        -10.00000000	         15.00000000	        -10.00000000	         60.00000000	         10.00000000	        -90.00000000	         26.66666667	        -90.00000000	
        200.20000000	        -15.00000000	        -10.00000000	         15.00000000	        -10.00000000	         60.00000000	         10.00000000	        -90.00000000	         26.66666667	        -90.00000000	
        200.21000000	        -50.00000000	          0.00000000	         15.00000000	        -10.00000000	         60.00000000	         10.00000000	        -90.00000000	         26.66666667	        -90.00000000	
        200.22000000	        -38.33333333	          0.00000000	         15.00000000	        -10.00000000	         60.00000000	         10.00000000	        -90.00000000	         26.66666667	        -90.00000000	
        200.23000000	        -26.66666667	          0.00000000	         15.00000000	        -10.00000000	         60.00000000	         10.00000000	        -90.00000000	         26.66666667	        -90.00000000	
        200.24000000	        -15.00000000	          0.00000000	         15.00000000	        -10.00000000	         60.00000000	         10.00000000	        -90.00000000	         26.66666667	        -90.00000000	
        200.25000000	        -50.00000000	         10.00000000	         15.00000000	        -10.00000000	         60.00000000	         10.00000000	        -90.00000000	         26.66666667	        -90.00000000	
        200.26000000	        -38.33333333	         10.00000000	         15.00000000	        -10.00000000	         60.00000000	         10.00000000	        -90.00000000	         26.66666667	        -90.00000000	
        200.27000000	        -26.66666667	         10.00000000	         15.00000000	        -10.00000000	         60.00000000	         10.00000000	        -90.00000000	         26.66666667	        -90.00000000	
        200.28000000	        -15.00000000	         10.00000000	         15.00000000	        -10.00000000	         60.00000000	         10.00000000	        -90.00000000	         26.66666667	        -90.00000000	
        200.29000000	        -50.00000000	         20.00000000	         15.00000000	        -10.00000000	         60.00000000	         10.00000000	        -90.00000000	         26.66666667	        -90.00000000	
        200.30000000	        -38.33333333	         20.00000000	         15.00000000	        -10.00000000	         60.00000000	         10.00000000	        -90.00000000	         26.66666667	        -90.00000000	
        200.31000000	        -26.66666667	         20.00000000	         15.00000000	        -10.00000000	         60.00000000	         10.00000000	        -90.00000000	         26.66666667	        -90.00000000	
        200.32000000	        -15.00000000	         20.00000000	         15.00000000	        -10.00000000	         60.00000000	         10.00000000	        -90.00000000	         26.66666667	        -90.00000000	
        200.33000000	        -50.00000000	        -10.00000000	        -40.00000000	         -3.33333333	         60.00000000	         10.00000000	        -90.00000000	         26.66666667	        -90.00000000	
        200.34000000	        -38.33333333	        -10.00000000	        -40.00000000	         -3.33333333	         60.00000000	         10.00000000	        -90.00000000	         26.66666667	        -90.00000000	
        200.35000000	        -26.66666667	        -10.00000000	        -40.00000000	         -3.33333333	         60.00000000	         10.00000000	        -90.00000000	         26.66666667	        -90.00000000	
        200.36000000	        -15.00000000	        -10.00000000	        -40.00000000	         -3.33333333	         60.00000000	         10.00000000	        -90.00000000	         26.66666667	        -90.00000000	
        200.37000000	        -50.00000000	          0.00000000	        -40.00000000	         -3.33333333	         60.00000000	         10.00000000	        -90.00000000	         26.66666667	        -90.00000000	
        200.38000000	        -38.33333333	          0.00000000	        -40.00000000	         -3.33333333	         60.00000000	         10.00000000	        -90.00000000	         26.66666667	        -90.00000000	
        200.39000000	        -26.66666667	          0.00000000	        -40.00000000	         -3.33333333	         60.00000000	         10.00000000	        -90.00000000	         26.66666667	        -90.00000000	
        200.40000000	        -15.00000000	          0.00000000	        -40.00000000	         -3.33333333	         60.00000000	         10.00000000	        -90.00000000	         26.66666667	        -90.00000000	
        200.41000000	        -50.00000000	         10.00000000	        -40.00000000	         -3.33333333	         60.00000000	         10.00000000	        -90.00000000	         26.66666667	        -90.00000000	
        200.42000000	        -38.33333333	         10.00000000	        -40.00000000	         -3.33333333	         60.00000000	         10.00000000	        -90.00000000	         26.66666667	        -90.00000000	
        200.43000000	        -26.66666667	         10.00000000	        -40.00000000	         -3.33333333	         60.00000000	         10.00000000	        -90.00000000	         26.66666667	        -90.00000000	
        200.44000000	        -15.00000000	         10.00000000	        -40.00000000	         -3.33333333	         60.00000000	         10.00000000	        -90.00000000	         26.66666667	        -90.00000000	
        200.45000000	        -50.00000000	         20.00000000	        -40.00000000	         -3.33333333	         60.00000000	         10.00000000	        -90.00000000	         26.66666667	        -90.00000000	
        200.46000000	        -38.33333333	         20.00000000	        -40.00000000	         -3.33333333	         60.00000000	         10.00000000	        -90.00000000	         26.66666667	        -90.00000000	
        200.47000000	        -26.66666667	         20.00000000	        -40.00000000	         -3.33333333	         60.00000000	         10.00000000	        -90.00000000	         26.66666667	        -90.00000000	
